<?xml version="1.0" encoding="utf-8"?>
<svg viewBox="0 0 500 500" xmlns="http://www.w3.org/2000/svg" xmlns:bx="https://boxy-svg.com">
  <g style="" transform="matrix(1.149575, 0, 0, 1.149575, -34.109558, -29.728678)">
    <path d="M 135.336 169.267 Q 169.974 92.053 226.249 169.267 L 264.57 221.846 Q 320.845 299.06 229.932 299.06 L 168.024 299.06 Q 77.111 299.06 111.749 221.846 Z" style="fill: rgb(255, 185, 203);" transform="matrix(-0.817545, -0.575864, -0.608765, 0.79437, 663.088489, 106.720664)" bx:shape="triangle 77.111 92.053 243.734 207.007 0.381 0.373 1@e09859dc"/>
    <path d="M -18.886 -14.839 Q 15.752 -92.053 72.027 -14.839 L 110.348 37.74 Q 166.623 114.954 75.71 114.954 L 13.802 114.954 Q -77.111 114.954 -42.473 37.74 Z" style="fill: rgb(255, 185, 203);" transform="matrix(0.817545, -0.575864, 0.608765, 0.79437, 69.35849, 164.158035)" bx:shape="triangle -77.111 -92.053 243.734 207.007 0.381 0.373 1@586ea14b"/>
    <g>
      <ellipse style="stroke-width: 6px; fill: rgb(255, 185, 203);" cx="248.405" cy="288.797" rx="163.704" ry="152.101"/>
      <path d="M 207.461 193.576 H 289.35 V 252.613 H 356.154 V 324.98 H 289.35 V 384.017 H 207.461 V 324.98 H 140.656 V 252.613 H 207.461 Z" style="fill: rgb(255, 255, 255);" bx:shape="cross 140.656 193.576 215.498 190.441 72.367 81.889 0.5 1@01e11077"/>
    </g>
  </g>
</svg>